<?xml version="1.0" encoding="iso-8859-1"?>
<!-- Generator: Adobe Illustrator 16.0.3, SVG Export Plug-In . SVG Version: 6.00 Build 0)  -->
<!DOCTYPE svg PUBLIC "-//W3C//DTD SVG 1.1//EN" "http://www.w3.org/Graphics/SVG/1.1/DTD/svg11.dtd">
<svg version="1.1" id="Layer_1" xmlns="http://www.w3.org/2000/svg" xmlns:xlink="http://www.w3.org/1999/xlink" x="0px" y="0px"
	 width="467.702px" height="92.758px" viewBox="0 0 467.702 92.758" style="enable-background:new 0 0 467.702 92.758;"
	 xml:space="preserve">
<polygon style="fill:#6D6E71;" points="43.759,54.989 43.759,84.99 56.509,84.991 56.509,59.966 "/>
<polygon style="fill:#6D6E71;" points="43.759,0 43.759,30.373 56.509,35.017 56.509,0 "/>
<polygon style="fill:#6D6E71;" points="28.991,49.226 28.991,84.99 41.741,84.99 41.741,54.201 "/>
<polygon style="fill:#6D6E71;" points="28.991,0 28.991,24.992 41.741,29.637 41.741,0 "/>
<polygon style="fill:#00928D;" points="58.522,37.929 26.979,26.439 0,26.44 0,58.553 26.979,58.553 26.979,46.242 58.521,58.553 
	85.5,58.553 85.5,26.44 58.522,26.439 "/>
<g>
	<defs>
		<rect id="SVGID_1_" width="467.702" height="92.758"/>
	</defs>
	<clipPath id="SVGID_2_">
		<use xlink:href="#SVGID_1_"  style="overflow:visible;"/>
	</clipPath>
	<path style="clip-path:url(#SVGID_2_);fill:#6D6E71;" d="M96.915,60.559h5.285c5.25,0,11.515-0.175,11.515,6.615
		c0,2.869-1.925,5.249-5.04,5.67v0.069c1.33,0.105,2.1,1.436,2.59,2.521l3.92,9.555h-5.46l-2.94-7.63
		c-0.7-1.82-1.33-2.521-3.395-2.521h-1.575v10.15h-4.9V60.559z M101.815,70.988h1.61c2.415,0,5.18-0.35,5.18-3.395
		c0-2.94-2.73-3.186-5.18-3.186h-1.61V70.988z"/>
	<path style="clip-path:url(#SVGID_2_);fill:#6D6E71;" d="M131.529,83.974c-1.715,0.944-3.675,1.435-6.195,1.435
		c-5.95,0-9.415-3.429-9.415-9.344c0-5.216,2.765-9.521,8.365-9.521c6.685,0,8.575,4.585,8.575,10.886h-12.46
		c0.21,2.904,2.24,4.551,5.145,4.551c2.275,0,4.235-0.841,5.985-1.821V83.974z M128.379,74.208c-0.14-2.274-1.19-4.234-3.815-4.234
		s-3.955,1.819-4.165,4.234H128.379z"/>
	<path style="clip-path:url(#SVGID_2_);fill:#6D6E71;" d="M151.864,66.963v16.275c0,4.9-1.96,9.52-9.52,9.52
		c-1.855,0-3.99-0.279-6.23-1.225l0.385-3.99c1.435,0.771,3.78,1.575,5.25,1.575c5.18,0,5.425-3.885,5.425-7h-0.07
		c-0.875,1.54-2.975,2.87-5.6,2.87c-5.32,0-7.35-4.27-7.35-9.1c0-4.341,2.24-9.346,7.63-9.346c2.38,0,4.235,0.806,5.53,2.87h0.07
		v-2.45H151.864z M147.174,75.783c0-3.08-1.19-5.6-3.92-5.6c-3.185,0-4.2,2.939-4.2,5.705c0,2.449,1.295,5.46,3.99,5.46
		C145.984,81.349,147.174,78.793,147.174,75.783"/>
	<path style="clip-path:url(#SVGID_2_);fill:#6D6E71;" d="M155.575,59.193h4.69v4.48h-4.69V59.193z M155.575,66.963h4.69v18.025
		h-4.69V66.963z"/>
	<path style="clip-path:url(#SVGID_2_);fill:#6D6E71;" d="M172.234,66.543c5.355,0,9.45,3.605,9.45,9.556
		c0,5.18-3.465,9.31-9.45,9.31c-5.95,0-9.415-4.13-9.415-9.31C162.819,70.148,166.915,66.543,172.234,66.543 M172.234,81.769
		c3.605,0,4.55-3.221,4.55-6.229c0-2.766-1.47-5.355-4.55-5.355c-3.045,0-4.515,2.66-4.515,5.355
		C167.719,78.514,168.665,81.769,172.234,81.769"/>
	<path style="clip-path:url(#SVGID_2_);fill:#6D6E71;" d="M184.134,66.963h4.445v2.45h0.07c1.47-2.064,3.465-2.87,5.915-2.87
		c4.27,0,6.125,3.011,6.125,7.07v11.375H196v-9.625c0-2.205-0.035-5.18-3.045-5.18c-3.395,0-4.13,3.676-4.13,5.984v8.82h-4.69
		V66.963z"/>
	<path style="clip-path:url(#SVGID_2_);fill:#6D6E71;" d="M205.099,67.908c1.82-0.84,4.27-1.365,6.265-1.365
		c5.495,0,7.77,2.275,7.77,7.596v2.31c0,1.82,0.035,3.186,0.07,4.515c0.035,1.365,0.105,2.625,0.21,4.025h-4.13
		c-0.175-0.945-0.175-2.135-0.21-2.695h-0.07c-1.085,1.995-3.43,3.115-5.565,3.115c-3.185,0-6.3-1.925-6.3-5.354
		c0-2.695,1.295-4.271,3.08-5.146s4.095-1.05,6.055-1.05h2.59c0-2.905-1.295-3.885-4.06-3.885c-1.995,0-3.99,0.77-5.565,1.96
		L205.099,67.908z M210.594,81.979c1.435,0,2.555-0.63,3.29-1.61c0.77-1.015,0.98-2.31,0.98-3.71h-2.03
		c-2.1,0-5.215,0.351-5.215,3.115C207.619,81.313,208.914,81.979,210.594,81.979"/>
	<rect x="222.633" y="58.738" style="clip-path:url(#SVGID_2_);fill:#6D6E71;" width="4.69" height="26.25"/>
	<polygon style="clip-path:url(#SVGID_2_);fill:#6D6E71;" points="239.959,60.559 247.799,60.559 253.609,79.073 253.679,79.073 
		259.489,60.559 267.329,60.559 267.329,84.988 262.639,84.988 262.639,64.828 262.569,64.828 255.989,84.988 251.299,84.988 
		244.719,64.828 244.648,64.898 244.648,84.988 239.959,84.988 	"/>
	<path style="clip-path:url(#SVGID_2_);fill:#6D6E71;" d="M285.809,83.974c-1.715,0.944-3.675,1.435-6.195,1.435
		c-5.95,0-9.415-3.429-9.415-9.344c0-5.216,2.766-9.521,8.365-9.521c6.685,0,8.575,4.585,8.575,10.886h-12.461
		c0.211,2.904,2.24,4.551,5.146,4.551c2.275,0,4.235-0.841,5.985-1.821V83.974z M282.658,74.208
		c-0.14-2.274-1.189-4.234-3.814-4.234s-3.955,1.819-4.166,4.234H282.658z"/>
	<path style="clip-path:url(#SVGID_2_);fill:#6D6E71;" d="M301.594,82.958h-0.07c-1.399,1.75-3.324,2.45-5.529,2.45
		c-5.53,0-7.561-4.55-7.561-9.485c0-4.971,2.03-9.38,7.561-9.38c2.345,0,3.989,0.806,5.39,2.521h0.07V58.738h4.688v26.25h-4.549
		V82.958z M297.289,81.769c3.114,0,4.13-3.29,4.13-5.846c0-2.52-1.19-5.739-4.2-5.739c-3.045,0-3.885,3.325-3.885,5.739
		C293.334,78.408,294.209,81.769,297.289,81.769"/>
	<path style="clip-path:url(#SVGID_2_);fill:#6D6E71;" d="M309.853,59.193h4.69v4.48h-4.69V59.193z M309.853,66.963h4.69v18.025
		h-4.69V66.963z"/>
	<path style="clip-path:url(#SVGID_2_);fill:#6D6E71;" d="M329.943,70.849c-0.84-0.386-1.75-0.665-3.185-0.665
		c-2.905,0-4.76,2.31-4.76,5.705c0,3.324,1.575,5.88,4.865,5.88c1.329,0,2.8-0.49,3.604-0.84l0.21,3.885
		c-1.365,0.42-2.765,0.595-4.689,0.595c-5.915,0-8.891-4.025-8.891-9.52c0-5.216,3.08-9.346,8.715-9.346
		c1.891,0,3.255,0.21,4.551,0.596L329.943,70.849z"/>
	<path style="clip-path:url(#SVGID_2_);fill:#6D6E71;" d="M333.373,67.908c1.82-0.84,4.271-1.365,6.267-1.365
		c5.493,0,7.769,2.275,7.769,7.596v2.31c0,1.82,0.035,3.186,0.07,4.515c0.036,1.365,0.104,2.625,0.21,4.025h-4.13
		c-0.176-0.945-0.176-2.135-0.21-2.695h-0.07c-1.085,1.995-3.43,3.115-5.565,3.115c-3.185,0-6.3-1.925-6.3-5.354
		c0-2.695,1.295-4.271,3.08-5.146s4.095-1.05,6.055-1.05h2.592c0-2.905-1.297-3.885-4.062-3.885c-1.995,0-3.99,0.77-5.563,1.96
		L333.373,67.908z M338.868,81.979c1.435,0,2.555-0.63,3.29-1.61c0.77-1.015,0.981-2.31,0.981-3.71h-2.031
		c-2.101,0-5.215,0.351-5.215,3.115C335.894,81.313,337.188,81.979,338.868,81.979"/>
	<rect x="350.907" y="58.738" style="clip-path:url(#SVGID_2_);fill:#6D6E71;" width="4.689" height="26.25"/>
	<path style="clip-path:url(#SVGID_2_);fill:#6D6E71;" d="M386.014,84.639c-1.785,0.42-3.71,0.771-5.566,0.771
		c-7.909,0-13.404-3.956-13.404-12.216c0-8.365,5.11-13.055,13.404-13.055c1.611,0,3.746,0.314,5.531,1.015l-0.351,4.131
		c-1.854-1.051-3.534-1.296-5.284-1.296c-5.04,0-8.19,3.85-8.19,8.855c0,4.97,3.08,8.715,8.294,8.715
		c1.926,0,4.201-0.42,5.356-1.016L386.014,84.639z"/>
	<path style="clip-path:url(#SVGID_2_);fill:#6D6E71;" d="M402.428,83.974c-1.715,0.944-3.675,1.435-6.195,1.435
		c-5.95,0-9.415-3.429-9.415-9.344c0-5.216,2.766-9.521,8.365-9.521c6.685,0,8.574,4.585,8.574,10.886h-12.459
		c0.209,2.904,2.239,4.551,5.145,4.551c2.274,0,4.235-0.841,5.985-1.821V83.974z M399.277,74.208
		c-0.14-2.274-1.189-4.234-3.814-4.234s-3.956,1.819-4.165,4.234H399.277z"/>
	<path style="clip-path:url(#SVGID_2_);fill:#6D6E71;" d="M406.208,66.963h4.445v2.45h0.069c1.471-2.064,3.464-2.87,5.915-2.87
		c4.271,0,6.125,3.011,6.125,7.07v11.375h-4.689v-9.625c0-2.205-0.035-5.18-3.045-5.18c-3.396,0-4.131,3.676-4.131,5.984v8.82
		h-4.689V66.963z"/>
	<path style="clip-path:url(#SVGID_2_);fill:#6D6E71;" d="M427.907,70.394h-3.465v-3.431h3.465v-3.604l4.688-1.505v5.109h4.165
		v3.431h-4.165v8.399c0,1.54,0.422,2.976,2.206,2.976c0.84,0,1.646-0.175,2.136-0.49l0.14,3.71c-0.981,0.28-2.066,0.42-3.465,0.42
		c-3.675,0-5.705-2.275-5.705-5.845V70.394z"/>
	<path style="clip-path:url(#SVGID_2_);fill:#6D6E71;" d="M453.212,83.974c-1.715,0.944-3.675,1.435-6.195,1.435
		c-5.95,0-9.415-3.429-9.415-9.344c0-5.216,2.766-9.521,8.365-9.521c6.685,0,8.574,4.585,8.574,10.886h-12.459
		c0.209,2.904,2.239,4.551,5.145,4.551c2.276,0,4.235-0.841,5.985-1.821V83.974z M450.062,74.208
		c-0.14-2.274-1.189-4.234-3.814-4.234s-3.956,1.819-4.165,4.234H450.062z"/>
	<path style="clip-path:url(#SVGID_2_);fill:#6D6E71;" d="M457.097,66.963h4.165v4.096h0.07c0.21-1.681,2.135-4.516,4.935-4.516
		c0.455,0,0.945,0,1.436,0.141v4.725c-0.42-0.245-1.26-0.385-2.1-0.385c-3.815,0-3.815,4.76-3.815,7.35v6.615h-4.69V66.963z"/>
	<polygon style="clip-path:url(#SVGID_2_);fill:#6D6E71;" points="97.09,26.44 103.11,26.44 112.42,44.71 112.49,44.71 
		112.49,26.44 117.18,26.44 117.18,50.87 111.195,50.87 101.85,32.601 101.78,32.601 101.78,50.87 97.09,50.87 	"/>
	<path style="clip-path:url(#SVGID_2_);fill:#6D6E71;" d="M135.414,49.855c-1.715,0.944-3.675,1.435-6.195,1.435
		c-5.95,0-9.415-3.43-9.415-9.345c0-5.214,2.765-9.52,8.365-9.52c6.685,0,8.575,4.585,8.575,10.886h-12.46
		c0.21,2.904,2.24,4.549,5.145,4.549c2.275,0,4.235-0.84,5.985-1.82V49.855z M132.264,40.09c-0.14-2.274-1.19-4.234-3.815-4.234
		s-3.955,1.819-4.165,4.234H132.264z"/>
	<polygon style="clip-path:url(#SVGID_2_);fill:#6D6E71;" points="137.164,32.845 142.134,32.845 146.124,46.18 146.194,46.18 
		149.834,32.845 155.294,32.845 159.214,46.18 159.284,46.18 163.029,32.845 167.509,32.845 161.979,50.87 156.449,50.87 
		152.529,37.116 152.459,37.116 148.609,50.87 143.254,50.87 	"/>
	<polygon style="clip-path:url(#SVGID_2_);fill:#6D6E71;" points="178.009,26.44 182.909,26.44 182.909,36.311 192.709,36.311 
		192.709,26.44 197.609,26.44 197.609,50.87 192.709,50.87 192.709,40.161 182.909,40.161 182.909,50.87 178.009,50.87 	"/>
	<path style="clip-path:url(#SVGID_2_);fill:#6D6E71;" d="M202.438,33.791c1.82-0.84,4.27-1.366,6.265-1.366
		c5.495,0,7.77,2.276,7.77,7.596v2.31c0,1.82,0.035,3.185,0.07,4.514c0.035,1.365,0.105,2.625,0.21,4.025h-4.13
		c-0.175-0.945-0.175-2.135-0.21-2.695h-0.07c-1.085,1.994-3.43,3.115-5.565,3.115c-3.185,0-6.3-1.925-6.3-5.354
		c0-2.695,1.295-4.27,3.08-5.145s4.095-1.05,6.055-1.05h2.59c0-2.905-1.295-3.885-4.06-3.885c-1.995,0-3.99,0.77-5.565,1.96
		L202.438,33.791z M207.934,47.86c1.435,0,2.555-0.63,3.29-1.61c0.77-1.015,0.98-2.31,0.98-3.71h-2.03
		c-2.1,0-5.215,0.35-5.215,3.115C204.958,47.195,206.253,47.86,207.934,47.86"/>
	<path style="clip-path:url(#SVGID_2_);fill:#6D6E71;" d="M219.869,32.845h4.445v2.45h0.07c1.47-2.064,3.464-2.87,5.915-2.87
		c4.27,0,6.125,3.011,6.125,7.07V50.87h-4.69v-9.625c0-2.205-0.035-5.179-3.045-5.179c-3.395,0-4.131,3.675-4.131,5.984v8.82h-4.689
		V32.845z"/>
	<path style="clip-path:url(#SVGID_2_);fill:#6D6E71;" d="M248.289,32.424c5.355,0,9.45,3.606,9.45,9.556
		c0,5.18-3.465,9.31-9.45,9.31c-5.95,0-9.415-4.13-9.415-9.31C238.874,36.03,242.969,32.424,248.289,32.424 M248.289,47.65
		c3.605,0,4.55-3.221,4.55-6.23c0-2.765-1.47-5.355-4.55-5.355c-3.046,0-4.516,2.66-4.516,5.355
		C243.773,44.396,244.719,47.65,248.289,47.65"/>
	<polygon style="clip-path:url(#SVGID_2_);fill:#6D6E71;" points="258.193,32.845 263.233,32.845 267.715,45.97 267.783,45.97 
		272.123,32.845 276.813,32.845 270.163,50.87 264.878,50.87 	"/>
	<path style="clip-path:url(#SVGID_2_);fill:#6D6E71;" d="M292.879,49.855c-1.715,0.944-3.675,1.435-6.195,1.435
		c-5.95,0-9.415-3.43-9.415-9.345c0-5.214,2.766-9.52,8.365-9.52c6.685,0,8.575,4.585,8.575,10.886h-12.46
		c0.21,2.904,2.239,4.549,5.145,4.549c2.274,0,4.235-0.84,5.985-1.82V49.855z M289.729,40.09c-0.14-2.274-1.189-4.234-3.814-4.234
		s-3.955,1.819-4.165,4.234H289.729z"/>
	<path style="clip-path:url(#SVGID_2_);fill:#6D6E71;" d="M296.763,32.845h4.165v4.096h0.07c0.21-1.681,2.135-4.516,4.935-4.516
		c0.455,0,0.945,0,1.435,0.141v4.724c-0.42-0.245-1.259-0.384-2.099-0.384c-3.815,0-3.815,4.759-3.815,7.349v6.615h-4.69V32.845z"/>
</g>
</svg>
